<svg xmlns="http://www.w3.org/2000/svg" width="25" height="25" viewBox="0 0 25 25">
  <path id="Path_45010" data-name="Path 45010" d="M19.5-1403.667a2.082,2.082,0,0,1-2.083-2.083,2.082,2.082,0,0,1,2.083-2.083,2.082,2.082,0,0,1,2.083,2.083A2.082,2.082,0,0,1,19.5-1403.667Zm1.389,11.111a1.393,1.393,0,0,1-1.389,1.389,1.393,1.393,0,0,1-1.389-1.389v-8.333a1.393,1.393,0,0,1,1.389-1.389,1.393,1.393,0,0,1,1.389,1.389ZM19.5-1412A12.5,12.5,0,0,0,7-1399.5,12.5,12.5,0,0,0,19.5-1387,12.5,12.5,0,0,0,32-1399.5,12.5,12.5,0,0,0,19.5-1412Z" transform="translate(-7 1412)" fill="#273382" fill-rule="evenodd"/>
</svg>
